<svg xmlns="http://www.w3.org/2000/svg" viewBox="0 0 512 512">
  <path fill="#3A76F0" d="M256 0C114.6 0 0 114.6 0 256s114.6 256 256 256 256-114.6 256-256S397.4 0 256 0Z"/>
  <path fill="#fff" d="M256 91c-91.4 0-165 73.6-165 165 0 29.1 7.5 56.5 20.7 80.2L93.8 421l87.3-17.5A164.3 164.3 0 0 0 256 421c91.4 0 165-73.6 165-165S347.4 91 256 91Zm0 297.3a132 132 0 0 1-67.3-18.3l-4.8-2.9-50.1 13.1 13.4-48.8-3.1-5a131.5 131.5 0 0 1-20.4-70.4c0-73.1 59.5-132.7 132.7-132.7S389.1 183 389.1 256 329.5 388.3 256 388.3Z"/>
  <circle cx="256" cy="256" r="60" fill="#fff"/>
</svg>
