<svg xmlns="http://www.w3.org/2000/svg" viewBox="0 0 512 512">
  <path fill="#3A76F0" d="M256 .3C116.5.3 3 113.8 3 253.3a251.7 251.7 0 0 0 33.9 127.1L2.6 497.7l120.4-31.5A252.3 252.3 0 0 0 256 506.3C395.5 506.3 509 392.8 509 253.3S395.5.3 256 .3z"/>
  <path fill="#fff" d="M391.7 130.8a192.5 192.5 0 0 0-50.6-40.3l-7.4 15.4a175.5 175.5 0 0 1 46.2 36.7zM149.5 96.2a192.3 192.3 0 0 0-42.9 47.6l15 8.2a175.6 175.6 0 0 1 39.1-43.5zM90.1 189.3a191.2 191.2 0 0 0-11.4 63.9l17 .5a174.3 174.3 0 0 1 10.4-58.3zM80.4 298.6a192 192 0 0 0 22.9 60.1l14.4-9.2a175.1 175.1 0 0 1-20.9-54.9zM131.2 394.6a192.3 192.3 0 0 0 52 35.4l7.4-15.4a175.5 175.5 0 0 1-47.5-32.3zM220.4 441.8a191.2 191.2 0 0 0 65 4.2l-1.8-17a174.3 174.3 0 0 1-59.3-3.8zM330 434.2a192 192 0 0 0 55.2-31.5l-11.3-12.9a175.1 175.1 0 0 1-50.4 28.8zM413.2 370.8a192.3 192.3 0 0 0 28.3-56.6l-16.3-5a175.6 175.6 0 0 1-25.9 51.7zM447 268.5a191.2 191.2 0 0 0-3.5-65.1l-16.5 4.5a174.3 174.3 0 0 1 3.2 59.4zM430.7 159.1a192 192 0 0 0-35-51.4l-12.5 11.4a175.1 175.1 0 0 1 31.9 46.9zM256 129.3c-68.4 0-124 55.6-124 124s55.6 124 124 124 124-55.6 124-124-55.6-124-124-124z"/>
</svg>
