<svg xmlns="http://www.w3.org/2000/svg" viewBox="0 0 175.216 175.552">
  <defs><linearGradient id="wa" x1="85.915" x2="86.535" y1="32.567" y2="137.092" gradientUnits="userSpaceOnUse"><stop offset="0" stop-color="#57d163"/><stop offset="1" stop-color="#23b33a"/></linearGradient></defs>
  <path fill="url(#wa)" d="M87.184 14.2A73.073 73.073 0 0 0 14.4 87.985a72.6 72.6 0 0 0 10.1 37.3L14.1 162l37.8-9.9a73.2 73.2 0 0 0 35.2 9 73.086 73.086 0 0 0 72.8-73.8A73.3 73.3 0 0 0 87.184 14.2Zm42.7 103.5c-1.8 5-10.5 9.5-14.5 10.1s-7.3 2.8-24-5a82.4 82.4 0 0 1-33.3-29.4c-4.7-6.2-9.9-17.5-3.8-25.8 2.8-3.9 6.3-4.5 8.4-4.6 2.1 0 3.5 0 5 .1s3.7-.7 5.8 4.4 7.1 17.4 7.7 18.7a4.7 4.7 0 0 1 .2 4.5 17.6 17.6 0 0 1-2.6 4.3c-1.3 1.5-2.7 3.3-3.9 4.4s-2.6 2.4-1.1 4.7a70 70 0 0 0 12.9 16.1 63.5 63.5 0 0 0 18.7 11.5c2.3 1.2 3.7 1 5-.6s5.8-6.8 7.4-9.1 3.1-2 5.3-1.2 13.7 6.5 16.1 7.6 3.9 1.7 4.5 2.7.5 5.8-1.3 10.8Z"/>
</svg>
